<?xml version="1.0" standalone="no"?>
<!DOCTYPE svg PUBLIC "-//W3C//DTD SVG 20010904//EN"
 "http://www.w3.org/TR/2001/REC-SVG-20010904/DTD/svg10.dtd">
<svg version="1.0" xmlns="http://www.w3.org/2000/svg"
 width="700.000000pt" height="700.000000pt" viewBox="0 0 700.000000 700.000000"
 preserveAspectRatio="xMidYMid meet">
<metadata>
Created by potrace 1.14, written by Peter Selinger 2001-2017
</metadata>
<g transform="translate(0.000000,700.000000) scale(0.100000,-0.100000)"
fill="#000000" stroke="none">
<path d="M3271 3565 c-255 -1147 -464 -2093 -465 -2102 -1 -13 41 -26 226 -67
125 -27 229 -48 231 -45 5 5 929 4162 931 4186 1 14 -36 25 -209 64 -115 27
-219 48 -230 48 -19 1 -53 -143 -484 -2084z"/>
<path d="M1815 4137 c-670 -538 -649 -518 -649 -637 0 -119 -21 -99 649 -637
330 -265 603 -481 607 -480 10 3 288 353 288 364 0 5 -207 175 -460 377 -253
202 -460 372 -460 376 0 4 207 174 460 376 253 202 460 372 460 377 0 11 -278
361 -288 364 -4 1 -277 -215 -607 -480z"/>
<path d="M4433 4441 c-79 -98 -143 -183 -143 -188 0 -5 207 -175 460 -377 253
-202 460 -372 460 -376 0 -4 -207 -174 -460 -376 -253 -202 -460 -372 -460
-377 0 -11 278 -361 288 -364 4 -1 277 215 607 480 670 538 649 518 649 637 0
119 20 99 -649 637 -330 265 -602 482 -605 482 -3 1 -69 -80 -147 -178z"/>
</g>
</svg>
